<?xml version="1.0" encoding="UTF-8"?>
<svg id="Camada_1" xmlns="http://www.w3.org/2000/svg" version="1.1" viewBox="0 0 1920 1080">
  <!-- Generator: Adobe Illustrator 30.0.0, SVG Export Plug-In . SVG Version: 2.1.1 Build 123)  -->
  <defs>
    <style>
      .st0 {
        fill: #009ee2;
      }

      .st0, .st1, .st2, .st3, .st4, .st5, .st6, .st7, .st8, .st9, .st10, .st11 {
        fill-rule: evenodd;
      }

      .st1 {
        fill: #009540;
      }

      .st2, .st12 {
        fill: #1d1d1b;
      }

      .st3 {
        fill: #e20613;
      }

      .st4 {
        fill: #aec90b;
      }

      .st5 {
        fill: #fff;
      }

      .st6 {
        fill: #ffec00;
      }

      .st7 {
        fill: #bf0d0d;
      }

      .st8 {
        fill: #008ad1;
      }

      .st9 {
        fill: #a0d9f7;
      }

      .st10 {
        fill: #312782;
      }

      .st11 {
        fill: #ee7d00;
      }
    </style>
  </defs>
  <path class="st7" d="M755.69,489.49l15.43-68.09h73.44l-1.78,7.86h-57.6l-5.31,23.44h49.14l-1.78,7.86h-49.14l-6.56,28.93h-15.84ZM836.02,489.49h13.68l13.74-17.03h47.14l5.86,17.03h16.83l-25.25-68.09h-15.84l-56.15,68.09ZM869.97,464.59l26.12-32.53,11.51,32.53h-37.64ZM949.1,489.49l15.43-68.09h28.88c12,0,20.2.65,24.57,1.96,9.35,2.73,13.25,7.55,11.69,14.45-1.07,4.73-3.71,8.7-7.88,11.87-4.17,3.15-10.61,6.1-19.33,8.82l28.59,31h-19.22l-26.17-28.33h-14.31l-6.42,28.33h-15.84ZM973.16,453.23h8.37c8.54,0,15.57-1.23,21.11-3.71,5.55-2.48,8.81-5.81,9.77-10.04.89-3.91-.36-6.62-3.8-8.06-3.43-1.45-10.19-2.17-20.26-2.17h-9.75l-5.44,23.98ZM1041.1,489.49l15.43-68.09h19.05l13.17,41.94h.17l31.8-41.94h19.87l-15.43,68.09h-12.96l13.24-58.44h-.17l-33.24,44.06h-13.34l-13.46-42.83h-.17l-12.96,57.21h-11.01ZM1133.76,489.49h13.67l13.75-17.03h47.14l5.86,17.03h16.83l-25.25-68.09h-15.84l-56.14,68.09ZM1167.7,464.59l26.12-32.53,11.51,32.53h-37.64ZM1184.7,415.5l20.52-11.77h21.8l-29.44,11.77h-12.88ZM1325.43,487.36c-11.2,2.52-21.47,3.77-30.86,3.77-16.39,0-28.89-3.24-37.44-9.74-8.55-6.48-11.64-15.02-9.24-25.6,2.43-10.72,9.4-19.42,20.87-26.07,11.47-6.64,25.27-9.98,41.35-9.98,9.12,0,18.63,1.03,28.57,3.08l-2.18,9.62c-9.89-3.23-19.44-4.84-28.66-4.84-10.68,0-20.05,2.59-28.11,7.75-8.06,5.17-12.98,11.74-14.79,19.73-1.83,8.08.57,14.68,7.18,19.8,6.6,5.12,16.02,7.7,28.26,7.7,7.38,0,16.41-1.27,27-3.82l-1.95,8.6ZM1345.21,489.49l1.78-7.86h27.75l11.87-52.37h-27.76l1.78-7.86h71.44l-1.78,7.86h-27.76l-11.87,52.37h27.76l-1.78,7.86h-71.43ZM1431.5,489.49h13.67l13.75-17.03h47.14l5.86,17.03h16.83l-25.25-68.09h-15.84l-56.14,68.09ZM1465.44,464.59l26.12-32.53,11.51,32.53h-37.64ZM1626.09,422.98l-2.06,9.08c-10.97-2.97-20.98-4.46-30.03-4.46-14.33,0-22.22,3.19-23.67,9.55-.59,2.59.29,4.65,2.63,6.23,2.31,1.57,6.91,3.2,13.78,4.85l9.61,2.34,9.14,2.19c14.18,3.46,20.34,9.33,18.47,17.61-1.43,6.3-6.39,11.34-14.87,15.11-8.51,3.77-19.15,5.65-31.97,5.65-8.89,0-20.12-1.25-33.65-3.77l2.35-10.36c13.11,4.18,24.3,6.27,33.56,6.27,7.85,0,14.31-1.02,19.44-3.05,5.13-2.05,8.08-4.76,8.86-8.21.59-2.61-.31-4.69-2.74-6.21-2.43-1.52-7.7-3.31-15.87-5.41l-10.03-2.54c-9.98-2.59-16.71-5.24-20.21-7.97-3.48-2.72-4.71-6.34-3.69-10.87,1.39-6.12,5.62-10.87,12.68-14.23,7.07-3.35,16.32-5.04,27.74-5.04,9.28,0,19.46,1.09,30.56,3.24"/>
  <path class="st10" d="M634.34,665.26c2.39,7.69,6.9,13.59,13.5,17.63,6.54,4.05,14.84,6.1,24.84,6.1,8.29,0,14.94-1.55,19.94-4.6,4.95-3.09,7.63-7.24,8-12.54.52-7.39-8.43-14.14-26.89-20.18-5.2-1.7-9.25-3.05-12.15-4.15-20.28-7.19-34.72-15.68-43.39-25.53-8.63-9.79-12.47-21.93-11.46-36.36,1.31-18.74,10.26-34.37,26.8-46.91,16.54-12.54,36.79-18.78,60.7-18.78,21.56,0,39.73,4.65,54.59,13.99,14.82,9.29,24.32,21.93,28.43,37.81l-53.28,13.89c-1.63-6.75-5.26-11.94-10.95-15.69-5.64-3.74-12.63-5.64-21.03-5.64-6.78,0-12.35,1.45-16.69,4.29-4.35,2.9-6.66,6.7-6.99,11.34-.46,6.55,7.35,12.74,23.43,18.59,2.04.8,3.62,1.35,4.71,1.75,25.83,9.44,43.54,19.18,53.04,29.12,9.5,9.94,13.69,22.53,12.62,37.77-1.41,20.18-10.97,36.77-28.71,49.76-17.74,12.99-40.06,19.49-66.89,19.49-24.1,0-44.13-5.2-60.05-15.54-15.91-10.34-25.93-24.68-30.07-43.01l57.92-12.59ZM870.35,705.47c-.52,2.55-.99,5.15-1.37,7.8-.38,2.6-.66,5.29-.85,8.04-.18,2.55-.32,4.6-.38,6.15-.06,1.55.02,3.15.21,4.7h57.86c-.17-2.45-.29-4.84-.32-7.25-.03-2.4.04-4.74.2-7.09.18-2.54.58-5.54,1.22-9.05.58-3.44,1.46-7.69,2.59-12.64l14.45-59.24c.8-3.75,1.4-6.74,1.75-8.99.36-2.3.6-4.35.72-6.09,1.07-15.23-3.97-26.92-15.1-35.17-11.18-8.25-27.58-12.39-49.2-12.39s-38.12,3.7-52.68,11.04c-14.52,7.4-25.27,18.09-32.26,32.12l48.5,9.79c2.58-5.55,6.2-9.84,10.85-12.84,4.65-3.05,10.02-4.54,16.12-4.54s10.12,1.2,12.87,3.65c2.81,2.45,4.02,6.04,3.68,10.84-.08,1.15-.21,2.4-.45,3.7-.24,1.35-.63,2.7-1.11,4.05-36.43.5-64.06,5.6-82.9,15.39-18.83,9.74-28.92,24.18-30.26,43.31-.93,13.24,2.56,24.03,10.47,32.32,7.91,8.29,18.64,12.44,32.26,12.44,11.76,0,21.98-2.5,30.72-7.44,8.74-4.99,16.2-12.54,22.41-22.58M881.21,659.11c-1.85,12.49-5.62,22.33-11.39,29.52-5.73,7.25-12.57,10.84-20.47,10.84-4.49,0-7.96-1.35-10.35-4.05-2.45-2.65-3.51-6.24-3.2-10.74.53-7.49,4.7-13.44,12.52-17.88,7.87-4.44,18.83-6.99,32.89-7.69M945.96,507.95c-4.03,12.99-8.99,22.48-14.78,28.47-5.84,5.99-12.88,8.99-21.17,8.99-2.2,0-4.29-.15-6.31-.5-2.03-.35-4.09-.85-6.09-1.55l-8.96-3.1c-1.57-.6-3.1-1-4.54-1.3-1.45-.3-2.9-.45-4.36-.45-3.61,0-6.72,1.2-9.38,3.65-2.66,2.45-4.66,5.94-6,10.44h-17.32c3.87-12.69,8.83-22.28,14.94-28.73,6.11-6.44,13.36-9.64,21.75-9.64,1.81,0,3.84.2,6.1.65,2.26.45,4.57,1,6.91,1.7l8.91,3.1c1.62.55,3.05,1,4.35,1.3,1.35.3,2.55.45,3.68.45,3.56,0,6.52-1.1,8.96-3.25,2.45-2.15,4.53-5.55,6.28-10.24h17.03ZM1017.85,672.75c-.57,8.09.46,14.24,3.15,18.48,2.63,4.25,6.77,6.4,12.38,6.4,7.66,0,14.46-5.85,20.55-17.49,6.04-11.69,9.69-26.22,10.9-43.56.56-7.95-.54-13.94-3.32-18.09-2.73-4.15-7.03-6.25-12.83-6.25-7.42,0-14.12,5.8-20.1,17.33-5.93,11.59-9.53,25.98-10.73,43.16M1031.22,736.7c-22.88,0-40.91-6.7-54.12-20.03-13.21-13.39-19.07-30.82-17.57-52.25,1-14.19,4.63-27.08,10.87-38.82,6.24-11.69,15.56-22.93,27.92-33.67,6.4-5.65,14.47-10.09,24.16-13.39,9.74-3.25,19.62-4.9,29.72-4.9,22.69,0,40.52,6.6,53.46,19.78,12.93,13.14,18.64,30.53,17.13,52.1-.94,13.44-4.2,25.93-9.83,37.37-5.64,11.49-13.71,22.28-24.38,32.42-7,6.64-15.66,11.89-25.88,15.68-10.22,3.8-20.7,5.7-31.48,5.7M1207.36,730.4l11.43-46.86c5.24,1.1,9.62,1.9,13.06,2.35,3.43.5,6.53.75,9.32.75,10.97,0,19.11-2.65,24.5-7.89,5.35-5.29,10.06-16.23,14.06-32.92l29.26-121.65h63.62l-33.6,136.98c-6.54,26.53-16.86,45.71-30.91,57.55-14.1,11.78-33.63,17.68-58.71,17.68-6.93,0-13.92-.5-20.92-1.55-6.96-1-14.02-2.49-21.11-4.44M1423.92,672.75c-.56,8.09.47,14.24,3.15,18.48,2.63,4.25,6.78,6.4,12.38,6.4,7.66,0,14.46-5.85,20.55-17.49,6.04-11.69,9.69-26.22,10.9-43.56.55-7.95-.53-13.94-3.32-18.09-2.73-4.15-7.03-6.25-12.83-6.25-7.42,0-14.12,5.8-20.1,17.33-5.93,11.59-9.53,25.98-10.73,43.16M1437.3,736.7c10.79,0,21.26-1.9,31.48-5.7,10.22-3.8,18.88-9.04,25.89-15.68,10.66-10.14,18.74-20.94,24.37-32.42,5.63-11.44,8.89-23.93,9.84-37.37,1.51-21.57-4.2-38.96-17.13-52.1-12.93-13.19-30.77-19.78-53.46-19.78-10.1,0-19.97,1.65-29.72,4.9-9.7,3.29-17.77,7.74-24.16,13.39-12.37,10.74-21.69,21.98-27.92,33.67-6.24,11.74-9.88,24.63-10.87,38.82-1.5,21.43,4.35,38.86,17.56,52.25,13.22,13.34,31.24,20.03,54.12,20.03M1633.04,705.47c-6.22,10.04-13.68,17.59-22.42,22.58-8.73,4.95-18.96,7.44-30.72,7.44-13.61,0-24.35-4.15-32.26-12.44-7.91-8.29-11.4-19.08-10.47-32.32,1.34-19.13,11.42-33.57,30.26-43.31,18.84-9.79,46.47-14.88,82.9-15.39.48-1.35.87-2.7,1.11-4.05.24-1.3.37-2.55.45-3.7.34-4.8-.87-8.39-3.68-10.84-2.76-2.45-7.06-3.65-12.87-3.65-6.1,0-11.47,1.5-16.13,4.54-4.65,3-8.27,7.29-10.85,12.84l-48.5-9.79c6.99-14.04,17.74-24.73,32.26-32.12,14.56-7.34,32.09-11.04,52.68-11.04,21.62,0,38.01,4.15,49.19,12.39,11.14,8.24,16.17,19.93,15.1,35.17-.12,1.75-.36,3.8-.72,6.09-.35,2.25-.95,5.25-1.75,8.99l-14.44,59.24c-1.12,4.95-2.01,9.2-2.59,12.64-.64,3.5-1.04,6.5-1.22,9.05-.16,2.35-.23,4.7-.2,7.09.02,2.4.15,4.8.32,7.25h-57.87c-.18-1.55-.27-3.15-.2-4.7.06-1.55.2-3.6.38-6.15.19-2.75.48-5.44.86-8.04.38-2.65.85-5.25,1.37-7.8M1643.89,659.11c-14.05.7-25.02,3.25-32.89,7.69-7.82,4.44-12,10.39-12.52,17.88-.32,4.5.75,8.09,3.2,10.74,2.39,2.7,5.86,4.05,10.35,4.05,7.9,0,14.74-3.6,20.47-10.84,5.77-7.19,9.54-17.03,11.39-29.52M1708.64,507.95c-4.03,12.99-8.99,22.48-14.77,28.47-5.84,5.99-12.88,8.99-21.17,8.99-2.19,0-4.28-.15-6.31-.5-2.02-.35-4.08-.85-6.09-1.55l-8.96-3.1c-1.56-.6-3.1-1-4.54-1.3-1.44-.3-2.89-.45-4.36-.45-3.61,0-6.72,1.2-9.38,3.65-2.66,2.45-4.66,5.94-6,10.44h-17.32c3.86-12.69,8.83-22.28,14.94-28.73,6.11-6.44,13.36-9.64,21.76-9.64,1.81,0,3.84.2,6.1.65,2.26.45,4.56,1,6.9,1.7l8.91,3.1c1.62.55,3.05,1,4.35,1.3,1.34.3,2.55.45,3.67.45,3.56,0,6.52-1.1,8.97-3.25,2.45-2.15,4.54-5.55,6.28-10.24h17.03ZM1780.53,672.75c-.56,8.09.46,14.24,3.15,18.48,2.63,4.25,6.78,6.4,12.38,6.4,7.66,0,14.46-5.85,20.55-17.49,6.04-11.69,9.69-26.22,10.91-43.56.55-7.95-.54-13.94-3.32-18.09-2.74-4.15-7.03-6.25-12.83-6.25-7.42,0-14.12,5.8-20.1,17.33-5.93,11.59-9.52,25.98-10.73,43.16M1793.9,736.7c-22.88,0-40.9-6.7-54.12-20.03-13.21-13.39-19.06-30.82-17.56-52.25.99-14.19,4.63-27.08,10.87-38.82,6.23-11.69,15.56-22.93,27.92-33.67,6.39-5.65,14.46-10.09,24.16-13.39,9.75-3.25,19.62-4.9,29.72-4.9,22.68,0,40.52,6.6,53.45,19.78,12.93,13.14,18.65,30.53,17.13,52.1-.94,13.44-4.21,25.93-9.84,37.37-5.63,11.49-13.71,22.28-24.38,32.42-7,6.64-15.66,11.89-25.88,15.68-10.22,3.8-20.7,5.7-31.48,5.7"/>
  <path class="st4" d="M319.11,314.05c131.42,31.26,228.29,117.91,216.32,193.49-11.97,75.57-128.24,111.51-259.65,80.25-131.42-31.27-228.29-117.91-216.32-193.49,11.96-75.57,128.24-111.51,259.65-80.25"/>
  <path class="st2" d="M226.97,370.11c-.37-.02-.73.01-1.1,0v-.11s-142.42,1.94-142.42,1.94c0,0-55.14,21.18-55.14,66.98-1.17,50.22,37,71.7,37,71.7l147.08,17.22v-.08c.98.14,1.93.35,2.91.42,31.2,2.3,59.11-31.21,62.33-74.86,3.23-43.65-19.46-80.9-50.66-83.21"/>
  <path class="st4" d="M265.04,452.85c-2.69,36.42-24.57,64.49-48.87,62.7-24.3-1.79-41.82-32.77-39.14-69.19,2.69-36.42,24.57-64.49,48.87-62.7,24.3,1.8,41.82,32.77,39.13,69.19"/>
  <path class="st2" d="M541.86,385.09c-14.76-45.53-63.09-51.9-63.09-51.9l-136.87,23.41c-31.06,4.99-50.58,44.35-43.58,87.93,6.99,43.58,37.84,74.86,68.9,69.88,1.6-.26,3.16-.66,4.69-1.1l.03.16,148.57-47.85s36.11-35,21.35-80.54"/>
  <path class="st0" d="M345.01,630.09c-20.45,3.86-34.28,23.21-30.89,43.21,3.4,20.01,22.75,33.1,43.21,29.25,20.46-3.86,34.28-23.21,30.88-43.22-3.4-20.01-22.75-33.1-43.2-29.24"/>
  <path class="st12" d="M350.11,705.56c-8.06,0-15.85-2.41-22.51-7.04-8.46-5.89-14.06-14.7-15.78-24.82-3.6-21.23,11.09-41.82,32.76-45.9,10.7-2.01,21.4.23,30.16,6.32,8.46,5.89,14.06,14.71,15.78,24.83,3.61,21.23-11.08,41.82-32.75,45.91-2.56.48-5.12.72-7.65.72ZM352.22,631.75c-2.24,0-4.51.21-6.78.64h0c-19.18,3.61-32.2,21.8-29.02,40.52,1.51,8.88,6.43,16.61,13.85,21.77,7.72,5.37,17.17,7.34,26.63,5.57,19.18-3.62,32.2-21.8,29.01-40.53-1.51-8.88-6.43-16.61-13.85-21.78-5.87-4.08-12.73-6.2-19.84-6.2Z"/>
  <path class="st3" d="M333.49,553c-10.43,1.97-17.49,11.84-15.76,22.04,1.74,10.2,11.6,16.88,22.04,14.92,10.43-1.97,17.49-11.84,15.75-22.04-1.73-10.2-11.6-16.88-22.03-14.92"/>
  <path class="st12" d="M336.09,592.64c-4.34,0-8.54-1.3-12.12-3.79-4.57-3.18-7.6-7.94-8.53-13.41-1.94-11.43,5.96-22.53,17.63-24.73h0c5.75-1.08,11.52.12,16.25,3.41,4.57,3.18,7.59,7.94,8.52,13.41,1.94,11.43-5.96,22.53-17.62,24.73-1.38.26-2.75.39-4.12.39ZM333.92,555.29c-9.17,1.74-15.41,10.42-13.89,19.36.72,4.22,3.06,7.9,6.6,10.36,3.68,2.56,8.19,3.49,12.71,2.65,9.17-1.74,15.4-10.42,13.88-19.36-.72-4.22-3.06-7.9-6.59-10.36-3.68-2.56-8.2-3.5-12.71-2.65h0Z"/>
  <path class="st6" d="M308.59,535.6c-10.43,1.97-17.49,11.84-15.76,22.04,1.73,10.2,11.6,16.88,22.04,14.92,10.43-1.97,17.49-11.84,15.75-22.05-1.73-10.2-11.6-16.88-22.03-14.91"/>
  <path class="st12" d="M311.19,575.25c-4.34,0-8.54-1.3-12.13-3.8-4.57-3.18-7.6-7.94-8.53-13.41-1.94-11.44,5.97-22.53,17.63-24.73h0c5.77-1.09,11.53.12,16.25,3.42,4.57,3.18,7.59,7.94,8.52,13.41,1.95,11.43-5.95,22.53-17.62,24.73-1.38.26-2.75.39-4.12.39ZM309.02,537.9c-9.17,1.74-15.4,10.42-13.89,19.36.72,4.22,3.06,7.9,6.59,10.36,3.68,2.56,8.19,3.5,12.71,2.66,9.18-1.74,15.4-10.42,13.88-19.36-.71-4.22-3.05-7.9-6.58-10.36-3.68-2.56-8.2-3.51-12.72-2.66h0Z"/>
  <path class="st0" d="M313.61,543.95c4.01,0,7.27,1.15,7.27,2.55s-3.26,2.56-7.27,2.56-7.27-1.15-7.27-2.56,3.26-2.55,7.27-2.55"/>
  <path class="st5" d="M345.92,664.2c-6.26,3.88-13.5,3.5-16.17-.86-2.67-4.35.24-11.04,6.5-14.92,6.26-3.88,13.5-3.49,16.17.87,2.67,4.35-.24,11.03-6.5,14.91"/>
  <path class="st12" d="M337.13,669.2c-1.09,0-2.15-.12-3.15-.35-2.75-.65-4.9-2.14-6.22-4.29-3.4-5.53-.21-13.49,7.26-18.12,4.23-2.62,9.16-3.6,13.17-2.67,2.75.65,4.9,2.14,6.22,4.29,3.39,5.53.2,13.49-7.26,18.12-3.17,1.97-6.74,3.02-10.02,3.02ZM344.98,648.08c-2.39,0-5.06.81-7.51,2.32-5.07,3.15-7.7,8.51-5.74,11.71.83,1.36,2.26,1.94,3.32,2.19,2.82.68,6.43-.11,9.63-2.09,5.07-3.15,7.7-8.51,5.74-11.7-.83-1.36-2.26-1.94-3.32-2.19-.67-.16-1.38-.24-2.12-.24Z"/>
  <path class="st5" d="M279.82,568.99c-16.95,3.19-28.41,19.23-25.59,35.8,2.82,16.58,18.85,27.42,35.79,24.23,16.95-3.19,28.41-19.23,25.59-35.81-2.82-16.57-18.85-27.42-35.79-24.22"/>
  <path class="st12" d="M284.04,631.92c-6.75,0-13.29-2.02-18.87-5.91-7.1-4.94-11.8-12.34-13.24-20.83-3.03-17.8,9.29-35.06,27.46-38.49h0c8.95-1.7,17.94.19,25.28,5.29,7.1,4.94,11.8,12.34,13.25,20.83,3.03,17.8-9.29,35.07-27.46,38.49-2.14.4-4.29.61-6.41.61ZM285.8,570.76c-1.83,0-3.69.17-5.54.52h0c-15.68,2.95-26.32,17.81-23.72,33.11,1.23,7.25,5.25,13.56,11.31,17.78,6.3,4.38,14.02,5.99,21.75,4.54,15.68-2.96,26.32-17.81,23.72-33.11-1.24-7.25-5.25-13.57-11.31-17.78-4.79-3.33-10.4-5.06-16.2-5.06Z"/>
  <polygon class="st3" points="184.97 680.12 190.3 695.82 282.96 664.98 281.89 662.17 184.97 680.12"/>
  <polygon class="st3" points="225.64 745.31 233.01 752.32 287.75 696.25 286.37 695.04 225.64 745.31"/>
  <polygon class="st3" points="277.17 800.09 286.71 802.96 312.36 727.22 310.62 726.76 277.17 800.09"/>
  <polygon class="st3" points="363 800.16 378.38 797.22 360.59 732.76 356.76 733.37 363 800.16"/>
  <polygon class="st3" points="454 752.91 461.95 743.83 410.26 696.93 407.89 698.07 454 752.91"/>
  <polygon class="st3" points="496.21 689.73 493.4 676.9 414.8 671.87 414.87 675.99 496.21 689.73"/>
  <polygon class="st3" points="491.7 622.8 491.72 610.52 407.8 640.11 408.64 641.79 491.7 622.8"/>
  <path class="st6" d="M213.97,470.58c10.6,0,19.2,8.41,19.2,18.77s-8.6,18.77-19.2,18.77-19.19-8.41-19.19-18.77,8.6-18.77,19.19-18.77"/>
  <path class="st12" d="M213.97,511.36c-12.37,0-22.43-9.87-22.43-22s10.06-22.01,22.43-22.01,22.43,9.87,22.43,22.01-10.06,22-22.43,22ZM213.97,473.82c-8.8,0-15.95,6.97-15.95,15.54s7.16,15.53,15.95,15.53,15.96-6.97,15.96-15.53-7.16-15.54-15.96-15.54Z"/>
  <path class="st6" d="M213.97,470.58c10.6,0,19.2,8.41,19.2,18.77s-8.6,18.77-19.2,18.77-19.19-8.41-19.19-18.77,8.6-18.77,19.19-18.77"/>
  <path class="st12" d="M213.97,511.36c-12.37,0-22.43-9.87-22.43-22s10.06-22.01,22.43-22.01,22.43,9.87,22.43,22.01-10.06,22-22.43,22ZM213.97,473.82c-8.8,0-15.95,6.97-15.95,15.54s7.16,15.53,15.95,15.53,15.96-6.97,15.96-15.53-7.16-15.54-15.96-15.54Z"/>
  <path class="st9" d="M399.38,428.31c5.83,36.35-9.38,69.02-33.97,72.96-24.6,3.95-49.26-22.32-55.1-58.67-5.83-36.35,9.38-69.02,33.97-72.97,24.59-3.94,49.26,22.32,55.1,58.67"/>
  <path class="st9" d="M478.64,346.53s-91.01,15.44-102.66,17.71c0,0,.74.49,1.95,1.49,17.06,11.27,30.99,34.36,35.53,62.65,3.6,22.42.55,43.58-7.16,59.4l107.38-33.54c25.48-16.76,33.96-94.74-35.04-107.72"/>
  <path class="st6" d="M333.58,493.48c-10.11,1.9-16.95,11.47-15.26,21.36,1.68,9.89,11.24,16.36,21.36,14.45,10.11-1.9,16.94-11.47,15.26-21.36-1.68-9.89-11.24-16.36-21.35-14.45"/>
  <path class="st12" d="M336.11,532.06c-4.25,0-8.35-1.27-11.86-3.71-4.46-3.11-7.42-7.76-8.33-13.1-1.9-11.17,5.82-22.01,17.21-24.16h0c5.62-1.05,11.27.12,15.88,3.34,4.46,3.11,7.42,7.76,8.32,13.1,1.9,11.18-5.82,22.01-17.21,24.16-1.34.25-2.69.37-4.02.37ZM334.03,495.87c-8.8,1.66-14.77,9.99-13.31,18.56.69,4.04,2.93,7.57,6.31,9.92,3.53,2.46,7.85,3.37,12.2,2.55,8.8-1.66,14.77-9.98,13.31-18.56-.68-4.04-2.92-7.57-6.31-9.93-3.53-2.45-7.86-3.36-12.2-2.55h0Z"/>
  <path class="st3" d="M337.12,454.76c-10.43,1.97-17.49,11.84-15.76,22.04,1.74,10.21,11.6,16.89,22.04,14.92,10.43-1.97,17.49-11.84,15.75-22.05-1.73-10.2-11.6-16.88-22.03-14.91"/>
  <path class="st12" d="M339.72,494.41c-4.34,0-8.54-1.3-12.13-3.79-4.57-3.18-7.6-7.95-8.53-13.42-1.94-11.44,5.97-22.53,17.63-24.73,5.76-1.08,11.53.12,16.25,3.42,4.57,3.18,7.59,7.94,8.52,13.41,1.95,11.43-5.96,22.53-17.62,24.73-1.38.26-2.75.39-4.12.39ZM340.79,456.75c-1.07,0-2.16.1-3.24.31-9.17,1.73-15.4,10.41-13.89,19.36.72,4.22,3.06,7.91,6.6,10.37,3.68,2.56,8.2,3.49,12.71,2.65,9.17-1.74,15.4-10.42,13.88-19.36-.71-4.22-3.05-7.9-6.58-10.36-2.8-1.95-6.08-2.96-9.47-2.96Z"/>
  <path class="st5" d="M372.68,428.32c-10.43,1.97-17.49,11.84-15.76,22.04,1.73,10.21,11.6,16.89,22.04,14.92,10.43-1.97,17.49-11.84,15.75-22.04-1.74-10.2-11.6-16.88-22.03-14.92"/>
  <path class="st12" d="M375.27,467.97c-4.34,0-8.53-1.3-12.12-3.79-4.57-3.18-7.6-7.95-8.53-13.42-1.94-11.44,5.96-22.53,17.63-24.73,5.76-1.09,11.52.13,16.24,3.41,4.57,3.18,7.6,7.95,8.53,13.42,1.95,11.44-5.96,22.53-17.62,24.73-1.38.26-2.76.39-4.13.39ZM376.36,430.31c-1.07,0-2.16.1-3.24.31-9.18,1.73-15.41,10.41-13.89,19.35.72,4.23,3.06,7.91,6.59,10.37,3.68,2.56,8.19,3.5,12.71,2.65,9.17-1.73,15.4-10.41,13.88-19.35-.72-4.23-3.06-7.91-6.59-10.37-2.8-1.94-6.07-2.96-9.46-2.96Z"/>
  <path class="st8" d="M362.22,467.98c-10.43,1.97-17.49,11.84-15.75,22.04,1.73,10.21,11.6,16.88,22.03,14.92,10.43-1.97,17.49-11.84,15.76-22.04-1.73-10.2-11.6-16.88-22.04-14.91"/>
  <path class="st12" d="M364.83,507.62c-4.35,0-8.56-1.3-12.15-3.8-4.56-3.18-7.58-7.94-8.51-13.41-1.95-11.43,5.96-22.53,17.62-24.73,5.76-1.08,11.53.12,16.25,3.41,4.57,3.18,7.6,7.94,8.53,13.41,1.95,11.44-5.96,22.54-17.62,24.73-1.37.26-2.75.38-4.11.38ZM365.9,469.97c-1.08,0-2.16.1-3.25.31h0c-9.17,1.73-15.4,10.41-13.88,19.35.72,4.22,3.05,7.9,6.58,10.36,3.68,2.56,8.2,3.52,12.72,2.66,9.18-1.73,15.41-10.42,13.88-19.36-.72-4.22-3.06-7.9-6.59-10.36-2.8-1.95-6.07-2.96-9.47-2.96Z"/>
  <path class="st11" d="M364.31,443.75c-10.43,1.97-17.49,11.84-15.76,22.04,1.74,10.21,11.6,16.88,22.04,14.92,10.43-1.97,17.49-11.84,15.75-22.04-1.73-10.21-11.6-16.89-22.03-14.92"/>
  <path class="st12" d="M366.91,483.39c-4.34,0-8.54-1.3-12.13-3.79-4.57-3.18-7.6-7.95-8.53-13.42-1.94-11.44,5.97-22.53,17.63-24.73h0c5.75-1.08,11.53.12,16.25,3.41,4.57,3.18,7.59,7.95,8.52,13.42,1.96,11.43-5.95,22.53-17.62,24.73-1.38.26-2.76.39-4.12.39ZM367.99,445.74c-1.08,0-2.16.1-3.25.31h0c-9.17,1.73-15.4,10.41-13.89,19.36.72,4.22,3.06,7.9,6.59,10.36,3.68,2.55,8.18,3.5,12.71,2.65,9.18-1.73,15.41-10.41,13.88-19.35-.72-4.23-3.05-7.91-6.59-10.37-2.8-1.95-6.07-2.96-9.47-2.96Z"/>
  <path class="st3" d="M249.25,506.31c10.6,0,19.2,8.41,19.2,18.77s-8.6,18.77-19.2,18.77-19.2-8.41-19.2-18.77,8.6-18.77,19.2-18.77"/>
  <path class="st12" d="M249.25,546.19c-11.87,0-21.53-9.47-21.53-21.11s9.66-21.11,21.53-21.11,21.53,9.47,21.53,21.11-9.66,21.11-21.53,21.11ZM249.25,508.65c-9.3,0-16.86,7.37-16.86,16.44s7.56,16.43,16.86,16.43,16.86-7.37,16.86-16.43-7.56-16.44-16.86-16.44Z"/>
  <path class="st4" d="M162.58,445.61c1.87-25.8,13.13-48.14,26.47-62.09l-103.82,1.6c-14.93,6.49-26.16,15.73-33.58,26.38-5.8,8.33-9.29,17.5-10.41,26.85-1.13,9.38.08,19.04,3.66,28.32,4.35,11.23,12.23,21.95,23.71,31l111.14,12.94c-11.14-15.79-19.04-39.28-17.18-65.01"/>
  <path class="st1" d="M265.04,452.86c.21-2.92.26-5.79.22-8.62l-16.67,5.32-10.71-1.82-17.2,1.82-3.49-3.64-21.93,3.64-18.47,2.91c-.42,33.71,16.45,61.38,39.38,63.08,24.3,1.8,46.18-26.27,48.87-62.69"/>
  <path class="st6" d="M213.97,470.58c10.6,0,19.2,8.41,19.2,18.77s-8.6,18.77-19.2,18.77-19.19-8.41-19.19-18.77,8.6-18.77,19.19-18.77"/>
  <path class="st12" d="M213.97,510.46c-11.87,0-21.53-9.47-21.53-21.11s9.66-21.11,21.53-21.11,21.53,9.47,21.53,21.11-9.66,21.11-21.53,21.11ZM213.97,472.92c-9.29,0-16.85,7.38-16.85,16.44s7.56,16.43,16.85,16.43,16.86-7.37,16.86-16.43-7.56-16.44-16.86-16.44Z"/>
</svg>